<svg width="24" height="24" xmlns="http://www.w3.org/2000/svg">

 <g>
  <title>Layer 1</title>
  <path id="svg_1" d="m21.17,2.06a13.1,13.1 0 0 0 -2.17,-0.19a12.94,12.94 0 0 0 -7,2.05a12.94,12.94 0 0 0 -7,-2a13.1,13.1 0 0 0 -2.17,0.19a1,1 0 0 0 -0.83,1l0,12a1,1 0 0 0 1.17,1a10.9,10.9 0 0 1 8.25,1.91l0.12,0.07l0.11,0a0.91,0.91 0 0 0 0.7,0l0.11,0l0.12,-0.07a10.9,10.9 0 0 1 8.25,-2.02a1,1 0 0 0 1.17,-1l0,-12a1,1 0 0 0 -0.83,-0.94zm-10.17,13.29a12.87,12.87 0 0 0 -6,-1.48c-0.33,0 -0.66,0 -1,0l0,-10a8.69,8.69 0 0 1 1,0a10.86,10.86 0 0 1 6,1.8l0,9.68zm9,-1.44c-0.34,0 -0.67,0 -1,0a12.87,12.87 0 0 0 -6,1.48l0,-9.72a10.86,10.86 0 0 1 6,-1.8a8.69,8.69 0 0 1 1,0l0,10.04zm1.17,4.15a13.1,13.1 0 0 0 -2.17,-0.19a12.94,12.94 0 0 0 -7,2.05a12.94,12.94 0 0 0 -7,-2.05a13.1,13.1 0 0 0 -2.17,0.19a1,1 0 0 0 -0.83,1.15a1,1 0 0 0 1.17,0.79a10.9,10.9 0 0 1 8.25,1.91a1,1 0 0 0 1.16,0a10.9,10.9 0 0 1 8.25,-1.91a1,1 0 0 0 1.17,-0.79a1,1 0 0 0 -0.83,-1.15z" fill="#ffffff"/>
 </g>
</svg>