<svg width="24" height="24" xmlns="http://www.w3.org/2000/svg">

 <g>
  <title>Layer 1</title>
  <path id="svg_1" d="m20,8.18l0,-5.18a1,1 0 0 0 -2,0l0,5.18a3,3 0 0 0 0,5.64l0,7.18a1,1 0 0 0 2,0l0,-7.18a3,3 0 0 0 0,-5.64zm-1,3.82a1,1 0 1 1 1,-1a1,1 0 0 1 -1,1zm-6,2.18l0,-11.18a1,1 0 0 0 -2,0l0,11.18a3,3 0 0 0 0,5.64l0,1.18a1,1 0 0 0 2,0l0,-1.18a3,3 0 0 0 0,-5.64zm-1,3.82a1,1 0 1 1 1,-1a1,1 0 0 1 -1,1zm-6,-11.82l0,-3.18a1,1 0 0 0 -2,0l0,3.18a3,3 0 0 0 0,5.64l0,9.18a1,1 0 0 0 2,0l0,-9.18a3,3 0 0 0 0,-5.64zm-1,3.82a1,1 0 1 1 1,-1a1,1 0 0 1 -1,1z" fill="#ffffff"/>
 </g>
</svg>