<svg width="24" height="24" xmlns="http://www.w3.org/2000/svg">

 <g>
  <title>Layer 1</title>
  <path id="svg_1" d="m21,12a1,1 0 0 0 -1,1l0,6a1,1 0 0 1 -1,1l-14,0a1,1 0 0 1 -1,-1l0,-14a1,1 0 0 1 1,-1l6,0a1,1 0 0 0 0,-2l-6,0a3,3 0 0 0 -3,3l0,14a3,3 0 0 0 3,3l14,0a3,3 0 0 0 3,-3l0,-6a1,1 0 0 0 -1,-1zm-15,0.76l0,4.24a1,1 0 0 0 1,1l4.24,0a1,1 0 0 0 0.71,-0.29l6.92,-6.93l0,0l2.84,-2.78a1,1 0 0 0 0,-1.42l-4.24,-4.29a1,1 0 0 0 -1.42,0l-2.82,2.83l0,0l-6.94,6.93a1,1 0 0 0 -0.29,0.71zm10.76,-8.35l2.83,2.83l-1.42,1.42l-2.83,-2.83l1.42,-1.42zm-8.76,8.76l5.93,-5.93l2.83,2.83l-5.93,5.93l-2.83,0l0,-2.83z" fill="#ffffff"/>
 </g>
</svg>