<svg width="24" height="24" xmlns="http://www.w3.org/2000/svg">

 <g>
  <title>Layer 1</title>
  <path id="svg_1" d="m3.71,16.29a1,1 0 0 0 -0.33,-0.21a1,1 0 0 0 -0.76,0a1,1 0 0 0 -0.33,0.21a1,1 0 0 0 -0.21,0.33a1,1 0 0 0 0.21,1.09a1.15,1.15 0 0 0 0.33,0.21a0.94,0.94 0 0 0 0.76,0a1.15,1.15 0 0 0 0.33,-0.21a1,1 0 0 0 0.21,-1.09a1,1 0 0 0 -0.21,-0.33zm3.29,-8.29l14,0a1,1 0 0 0 0,-2l-14,0a1,1 0 0 0 0,2zm-3.29,3.29a1,1 0 0 0 -1.09,-0.21a1.15,1.15 0 0 0 -0.33,0.21a1,1 0 0 0 -0.21,0.33a0.94,0.94 0 0 0 0,0.76a1.15,1.15 0 0 0 0.21,0.33a1.15,1.15 0 0 0 0.33,0.21a0.94,0.94 0 0 0 0.76,0a1.15,1.15 0 0 0 0.33,-0.21a1.15,1.15 0 0 0 0.21,-0.33a0.94,0.94 0 0 0 0,-0.76a1,1 0 0 0 -0.21,-0.33zm17.29,-0.29l-14,0a1,1 0 0 0 0,2l14,0a1,1 0 0 0 0,-2zm-17.29,-4.71a1,1 0 0 0 -0.33,-0.21a1,1 0 0 0 -1.09,0.21a1.15,1.15 0 0 0 -0.21,0.33a0.94,0.94 0 0 0 0,0.76a1.15,1.15 0 0 0 0.21,0.33a1.15,1.15 0 0 0 0.33,0.21a1,1 0 0 0 1.09,-0.21a1.15,1.15 0 0 0 0.21,-0.33a0.94,0.94 0 0 0 0,-0.76a1.15,1.15 0 0 0 -0.21,-0.33zm17.29,9.71l-14,0a1,1 0 0 0 0,2l14,0a1,1 0 0 0 0,-2z" fill="#ffffff"/>
 </g>
</svg>