<svg width="24" height="24" xmlns="http://www.w3.org/2000/svg" data-name="Layer 1">

 <g>
  <title>Layer 1</title>
  <path id="svg_1" d="m19,6l-3,0l0,-3a1,1 0 0 0 -2,0l0,3l-4,0l0,-3a1,1 0 0 0 -2,0l0,3l-3,0a1,1 0 0 0 0,2l1,0l0,5a1,1 0 0 0 0.29,0.71l2.71,2.7l0,4.59a1,1 0 0 0 2,0l0,-4l2,0l0,4a1,1 0 0 0 2,0l0,-4.59l2.71,-2.7a1,1 0 0 0 0.29,-0.71l0,-5l1,0a1,1 0 0 0 0,-2zm-3,6.59l-2.41,2.41l-3.18,0l-2.41,-2.41l0,-4.59l8,0l0,4.59zm-5,0.41l2,0a1,1 0 0 0 0,-2l-2,0a1,1 0 0 0 0,2z" fill="#ffffff"/>
 </g>
</svg>