<svg width="24" height="24" xmlns="http://www.w3.org/2000/svg" data-name="Layer 1">

 <g>
  <title>Layer 1</title>
  <path id="svg_1" d="m19.9,12.66a1,1 0 0 1 0,-1.32l1.28,-1.44a1,1 0 0 0 0.12,-1.17l-2,-3.46a1,1 0 0 0 -1.07,-0.48l-1.88,0.38a1,1 0 0 1 -1.15,-0.66l-0.61,-1.83a1,1 0 0 0 -0.95,-0.68l-4,0a1,1 0 0 0 -1,0.68l-0.56,1.83a1,1 0 0 1 -1.15,0.66l-1.93,-0.38a1,1 0 0 0 -1,0.48l-2,3.46a1,1 0 0 0 0.1,1.17l1.27,1.44a1,1 0 0 1 0,1.32l-1.27,1.44a1,1 0 0 0 -0.1,1.17l2,3.46a1,1 0 0 0 1.07,0.48l1.88,-0.38a1,1 0 0 1 1.15,0.66l0.61,1.83a1,1 0 0 0 1,0.68l4,0a1,1 0 0 0 0.95,-0.68l0.61,-1.83a1,1 0 0 1 1.15,-0.66l1.88,0.38a1,1 0 0 0 1.07,-0.48l2,-3.46a1,1 0 0 0 -0.12,-1.17l-1.35,-1.44zm-1.49,1.34l0.8,0.9l-1.28,2.22l-1.18,-0.24a3,3 0 0 0 -3.45,2l-0.38,1.12l-2.56,0l-0.36,-1.14a3,3 0 0 0 -3.45,-2l-1.18,0.24l-1.3,-2.21l0.8,-0.9a3,3 0 0 0 0,-4l-0.8,-0.9l1.28,-2.2l1.18,0.24a3,3 0 0 0 3.45,-2l0.38,-1.13l2.56,0l0.38,1.14a3,3 0 0 0 3.45,2l1.18,-0.24l1.28,2.22l-0.8,0.9a3,3 0 0 0 0,3.98zm-6.77,-6a4,4 0 1 0 4,4a4,4 0 0 0 -4,-4zm0,6a2,2 0 1 1 2,-2a2,2 0 0 1 -2,2z" fill="#ffffff"/>
 </g>
</svg>