<svg width="24" height="24" xmlns="http://www.w3.org/2000/svg">

 <g>
  <title>Layer 1</title>
  <path id="svg_1" d="m7,16a1,1 0 1 0 1,1a1,1 0 0 0 -1,-1zm12.06,-4l1.23,-1.23a3,3 0 0 0 0,-4.24l-2.83,-2.82a3,3 0 0 0 -4.24,0l-1.22,1.23a3,3 0 0 0 -3,-2.94l-4,0a3,3 0 0 0 -3,3l0,14a3,3 0 0 0 3,3l14,0a3,3 0 0 0 3,-3l0,-4a3,3 0 0 0 -2.94,-3zm-9.06,7a1,1 0 0 1 -1,1l-4,0a1,1 0 0 1 -1,-1l0,-14a1,1 0 0 1 1,-1l4,0a1,1 0 0 1 1,1l0,14zm2,-11.24l2.64,-2.64a1,1 0 0 1 1.41,0l2.83,2.88a1,1 0 0 1 0,1.41l-2.88,2.88l0,0l-4,3.95l0,-8.48zm8,11.24a1,1 0 0 1 -1,1l-7.18,0a3.12,3.12 0 0 0 0.17,-0.92l5.08,-5.08l1.93,0a1,1 0 0 1 1,1l0,4z" fill="#ffffff"/>
 </g>
</svg>