<svg width="24" height="24" xmlns="http://www.w3.org/2000/svg">

 <g>
  <title>Layer 1</title>
  <path id="svg_1" d="m12.3,12.22a4.92,4.92 0 0 0 1.7,-3.72a5,5 0 0 0 -10,0a4.92,4.92 0 0 0 1.7,3.72a8,8 0 0 0 -4.7,7.28a1,1 0 0 0 2,0a6,6 0 0 1 12,0a1,1 0 0 0 2,0a8,8 0 0 0 -4.7,-7.28zm-3.3,-0.72a3,3 0 1 1 3,-3a3,3 0 0 1 -3,3zm9.74,0.32a5,5 0 0 0 -3.74,-8.32a1,1 0 0 0 0,2a3,3 0 0 1 3,3a3,3 0 0 1 -1.5,2.59a1,1 0 0 0 -0.5,0.84a1,1 0 0 0 0.45,0.86l0.39,0.26l0.13,0.07a7,7 0 0 1 4,6.38a1,1 0 0 0 2,0a9,9 0 0 0 -4.23,-7.68z" fill="#ffffff"/>
 </g>
</svg>